<svg width="21" height="21" viewBox="0 0 21 21" fill="none" xmlns="http://www.w3.org/2000/svg">
<path d="M12.8223 19.4449H7.69376C6.56548 19.4449 5.62525 19.3338 4.83032 19.0945C4.5397 19.009 4.35166 18.7269 4.36875 18.4278C4.58244 15.872 7.17236 13.8633 10.258 13.8633C13.3437 13.8633 15.9251 15.8635 16.1473 18.4278C16.1729 18.7355 15.9849 19.009 15.6857 19.0945C14.8908 19.3338 13.9506 19.4449 12.8223 19.4449ZM5.74491 18.0004C6.30905 18.1115 6.95012 18.1628 7.69376 18.1628H12.8223C13.5659 18.1628 14.207 18.1115 14.7711 18.0004C14.3181 16.3593 12.4462 15.1454 10.258 15.1454C8.06985 15.1454 6.19793 16.3593 5.74491 18.0004Z" fill="#979797"/>
<path d="M12.8213 1.70996H7.69278C3.41899 1.70996 1.70947 3.41948 1.70947 7.69327V12.8218C1.70947 16.0528 2.6839 17.8221 5.00884 18.4803C5.19689 16.2579 7.47909 14.5057 10.2571 14.5057C13.035 14.5057 15.3172 16.2579 15.5053 18.4803C17.8302 17.8221 18.8046 16.0528 18.8046 12.8218V7.69327C18.8046 3.41948 17.0951 1.70996 12.8213 1.70996ZM10.2571 12.1124C8.56463 12.1124 7.19702 10.7362 7.19702 9.04378C7.19702 7.35138 8.56463 5.98375 10.2571 5.98375C11.9495 5.98375 13.3171 7.35138 13.3171 9.04378C13.3171 10.7362 11.9495 12.1124 10.2571 12.1124Z" stroke="#979797" stroke-width="1.28214" stroke-linecap="round" stroke-linejoin="round"/>
<path d="M10.2572 12.7535C8.21438 12.7535 6.55615 11.0867 6.55615 9.04388C6.55615 7.00102 8.21438 5.34277 10.2572 5.34277C12.3001 5.34277 13.9583 7.00102 13.9583 9.04388C13.9583 11.0867 12.3001 12.7535 10.2572 12.7535ZM10.2572 6.62491C8.92381 6.62491 7.83829 7.71047 7.83829 9.04388C7.83829 10.3858 8.92381 11.4714 10.2572 11.4714C11.5907 11.4714 12.6762 10.3858 12.6762 9.04388C12.6762 7.71047 11.5907 6.62491 10.2572 6.62491Z" fill="#979797"/>
</svg>
