<svg width="21" height="21" viewBox="0 0 21 21" fill="none" xmlns="http://www.w3.org/2000/svg">
<path d="M7.69327 18.8051H12.8218C17.0956 18.8051 18.8051 17.0956 18.8051 12.8218V7.69327C18.8051 3.41948 17.0956 1.70996 12.8218 1.70996H7.69327C3.41948 1.70996 1.70996 3.41948 1.70996 7.69327V12.8218C1.70996 17.0956 3.41948 18.8051 7.69327 18.8051Z" stroke="#9197B3" stroke-width="1.28214" stroke-linecap="round" stroke-linejoin="round"/>
<path d="M13.9158 11.6329C12.9499 12.5987 11.5652 12.8979 10.3429 12.5133L8.12908 14.7185C7.97522 14.8809 7.65896 14.9835 7.42818 14.9493L6.40247 14.8126C6.06057 14.7698 5.75285 14.445 5.70157 14.1117L5.56481 13.0859C5.53062 12.8637 5.64173 12.5474 5.79559 12.385L8.00087 10.1798C7.62477 8.95747 7.91539 7.57277 8.88126 6.60689C10.266 5.22218 12.5225 5.22218 13.9158 6.60689C15.3005 7.98305 15.3005 10.2396 13.9158 11.6329Z" stroke="#9197B3" stroke-width="1.28214" stroke-miterlimit="10" stroke-linecap="round" stroke-linejoin="round"/>
<path d="M8.93213 13.9158L8.20557 13.1807" stroke="#9197B3" stroke-width="1.28214" stroke-miterlimit="10" stroke-linecap="round" stroke-linejoin="round"/>
<path d="M11.4492 9.14648H11.4562" stroke="#9197B3" stroke-width="1.70952" stroke-linecap="round" stroke-linejoin="round"/>
</svg>
