<svg width="66" height="26" viewBox="0 0 66 26" fill="none" xmlns="http://www.w3.org/2000/svg">
<path d="M14.3811 18.128C14.5548 17.973 14.8214 17.9633 15.0069 18.1155C15.2109 18.2828 15.2395 18.5825 15.0708 18.7848C14.6548 19.3243 14.0113 19.6434 13.3266 19.6497L13.1907 19.644C12.5594 19.5982 11.9751 19.2869 11.588 18.7848L11.5468 18.7274C11.4259 18.5291 11.4664 18.2676 11.6519 18.1155C11.8559 17.9481 12.158 17.9765 12.3268 18.1788C12.4008 18.2771 12.4888 18.3643 12.5878 18.4377C12.8526 18.6332 13.1851 18.7158 13.5115 18.6672C13.8379 18.6186 14.1312 18.4428 14.3264 18.1788H14.332L14.3811 18.128ZM13.3321 7.12793C15.2541 7.12793 17.4093 8.48312 17.6537 10.6591V11.794C17.7371 12.2036 17.9288 12.5838 18.2091 12.8958C18.2258 12.9146 18.2406 12.9349 18.2536 12.9564C18.5078 13.339 18.6536 13.7823 18.6757 14.2399L18.6591 14.3556C18.6782 14.9819 18.4692 15.5941 18.0703 16.0799C17.5609 16.6296 16.8644 16.973 16.115 17.044C14.2691 17.2466 12.4063 17.2466 10.5604 17.044C9.82193 16.9682 9.13763 16.6249 8.63845 16.0799C8.23296 15.601 8.01767 14.9918 8.03299 14.3667V14.2895C8.06353 13.8182 8.22081 13.3636 8.48847 12.9729L8.53291 12.9178C8.81128 12.6045 9.0027 12.2248 9.08838 11.816V10.6812L9.11909 10.6178C9.21248 10.4568 9.39436 10.3627 9.58486 10.3833C9.79916 10.4065 9.97125 10.5692 10.0049 10.7803V11.9152C10.0071 11.9353 10.0071 11.9556 10.0049 11.9758C9.88924 12.5441 9.62488 13.0723 9.23835 13.5073C9.0895 13.7424 9.00524 14.0121 8.99395 14.2895V14.4107C8.98162 14.8009 9.11181 15.1824 9.36056 15.485C9.70543 15.8382 10.1666 16.0572 10.6603 16.102C12.4474 16.2948 14.2502 16.2948 16.0373 16.102C16.5445 16.0558 17.0169 15.8264 17.3648 15.4574C17.6014 15.162 17.7253 14.7933 17.7148 14.4162V14.2895C17.7034 14.0112 17.6212 13.7402 17.4759 13.5018C17.0733 13.0717 16.7934 12.5431 16.6649 11.9703C16.6628 11.9501 16.6628 11.9298 16.6649 11.9097V10.7693C16.5039 9.10563 14.8319 8.07546 13.3766 8.07546C12.7579 8.07405 12.1493 8.23158 11.6102 8.5327L11.5442 8.56548C11.4084 8.62029 11.2531 8.61067 11.124 8.53627C10.9735 8.44948 10.8824 8.28828 10.8865 8.11559C10.8906 7.9429 10.9891 7.78609 11.1436 7.70637C11.8116 7.33208 12.5649 7.13299 13.3321 7.12793Z" fill="#6C7894"/>
<rect x="14.2939" y="7.12793" width="4.38262" height="4.38262" rx="2.19131" fill="#FC0A0A"/>
<path d="M16.332 9.84424C16.2383 9.84364 16.1479 9.82793 16.0607 9.7971C15.9742 9.76627 15.8965 9.71617 15.8277 9.64681C15.759 9.57744 15.7044 9.48554 15.6641 9.37111C15.6244 9.25669 15.6045 9.11617 15.6045 8.94957C15.6051 8.79661 15.6226 8.65995 15.657 8.53959C15.692 8.41864 15.7418 8.31607 15.8064 8.23188C15.8716 8.14769 15.9496 8.08366 16.0403 8.03978C16.131 7.99532 16.2327 7.97309 16.3453 7.97309C16.4669 7.97309 16.5742 7.9968 16.6673 8.04423C16.7604 8.09107 16.8351 8.15481 16.8914 8.23544C16.9483 8.31607 16.9827 8.40649 16.9945 8.50668H16.6148C16.6 8.44324 16.5689 8.39344 16.5214 8.35728C16.474 8.32111 16.4153 8.30303 16.3453 8.30303C16.2268 8.30303 16.1366 8.35461 16.075 8.45777C16.0139 8.56093 15.9828 8.70115 15.9816 8.87842H15.994C16.0213 8.82447 16.0581 8.77852 16.1043 8.74058C16.1512 8.70204 16.2042 8.67269 16.2635 8.65253C16.3234 8.63178 16.3865 8.62141 16.4529 8.62141C16.5608 8.62141 16.6569 8.6469 16.7411 8.69789C16.8253 8.74829 16.8917 8.81765 16.9403 8.90599C16.9889 8.99433 17.0132 9.09542 17.0132 9.20925C17.0132 9.33258 16.9845 9.44226 16.927 9.53831C16.87 9.63436 16.7903 9.70965 16.6877 9.7642C16.5858 9.81815 16.4672 9.84483 16.332 9.84424ZM16.3302 9.54186C16.3895 9.54186 16.4426 9.52764 16.4894 9.49918C16.5362 9.47072 16.573 9.43218 16.5997 9.38356C16.6264 9.33495 16.6397 9.2804 16.6397 9.21993C16.6397 9.15945 16.6264 9.1052 16.5997 9.05718C16.5736 9.00916 16.5374 8.97091 16.4912 8.94246C16.4449 8.914 16.3922 8.89977 16.3329 8.89977C16.2884 8.89977 16.2472 8.90807 16.2093 8.92467C16.1719 8.94127 16.139 8.96439 16.1106 8.99404C16.0827 9.02368 16.0607 9.05807 16.0447 9.0972C16.0287 9.13574 16.0207 9.17694 16.0207 9.22082C16.0207 9.27951 16.0341 9.33317 16.0607 9.38179C16.088 9.4304 16.1248 9.46924 16.171 9.49829C16.2179 9.52734 16.2709 9.54186 16.3302 9.54186Z" fill="white"/>
<rect x="1.14605" y="1.18023" width="24.4175" height="24.4175" rx="4.69567" stroke="#4B65A2" stroke-width="0.626089"/>
<g clip-path="url(#clip0_83_9464)">
<path d="M51.6025 11.5104C51.7497 11.0919 52.0403 10.7391 52.4227 10.5143C52.8051 10.2896 53.2547 10.2074 53.6919 10.2824C54.1291 10.3574 54.5256 10.5847 54.8113 10.924C55.097 11.2634 55.2533 11.6929 55.2526 12.1364C55.2526 13.3886 53.3744 14.0147 53.3744 14.0147" stroke="#6C7894" stroke-width="1.25218" stroke-linecap="round" stroke-linejoin="round"/>
<path d="M53.4248 16.5193H53.4302" stroke="#6C7894" stroke-width="1.25218" stroke-linecap="round" stroke-linejoin="round"/>
<path d="M53.425 19.0237C56.8827 19.0237 59.6858 16.2206 59.6858 12.7628C59.6858 9.30505 56.8827 6.50195 53.425 6.50195C51.338 6.50195 47.1641 7.75413 47.1641 12.7628" stroke="#6C7894" stroke-width="0.939133" stroke-linecap="round" stroke-linejoin="round"/>
<path d="M48.4474 16.5597C50.5446 19.309 54.4733 19.8376 57.2226 17.7405C59.9718 15.6433 60.5005 11.7146 58.4033 8.96533" stroke="#6C7894" stroke-width="0.939133" stroke-linecap="round" stroke-linejoin="round"/>
</g>
<rect x="41.2154" y="1.18023" width="24.4175" height="24.4175" rx="4.69567" stroke="#4B65A2" stroke-width="0.626089"/>
<defs>
<clipPath id="clip0_83_9464">
<rect width="15.0261" height="15.0261" fill="white" transform="translate(45.9111 5.87598)"/>
</clipPath>
</defs>
</svg>
