<svg width="21" height="22" viewBox="0 0 21 22" fill="none" xmlns="http://www.w3.org/2000/svg">
<path d="M9.5261 15.335V17.0701C9.5261 18.5403 8.15847 19.7284 6.4746 19.7284C4.79073 19.7284 3.41455 18.5403 3.41455 17.0701V15.335C3.41455 16.8051 4.78218 17.8479 6.4746 17.8479C8.15847 17.8479 9.5261 16.7966 9.5261 15.335Z" stroke="#9197B3" stroke-width="1.28214" stroke-linecap="round" stroke-linejoin="round"/>
<path d="M9.52486 12.9847C9.52486 13.4121 9.40519 13.8053 9.20005 14.1472C8.69571 14.9763 7.66144 15.4977 6.46478 15.4977C5.26811 15.4977 4.23385 14.9677 3.72954 14.1472C3.5244 13.8053 3.40479 13.4121 3.40479 12.9847C3.40479 12.2496 3.74667 11.5915 4.29372 11.1128C4.84931 10.6256 5.61001 10.335 6.45622 10.335C7.30243 10.335 8.06319 10.6341 8.61878 11.1128C9.18296 11.5829 9.52486 12.2496 9.52486 12.9847Z" stroke="#9197B3" stroke-width="1.28214" stroke-linecap="round" stroke-linejoin="round"/>
<path d="M9.5261 12.9854V15.336C9.5261 16.8062 8.15847 17.849 6.4746 17.849C4.79073 17.849 3.41455 16.7977 3.41455 15.336V12.9854C3.41455 11.5153 4.78218 10.3271 6.4746 10.3271C7.32081 10.3271 8.08157 10.6263 8.63716 11.105C9.1842 11.5836 9.5261 12.2504 9.5261 12.9854Z" stroke="#9197B3" stroke-width="1.28214" stroke-linecap="round" stroke-linejoin="round"/>
<path d="M19.141 10.3005V12.0614C19.141 12.5315 18.7649 12.9161 18.2862 12.9332H16.6108C15.6877 12.9332 14.8416 12.2579 14.7646 11.3348C14.7134 10.7963 14.9184 10.292 15.2774 9.94152C15.5937 9.61671 16.0297 9.42871 16.5083 9.42871H18.2862C18.7649 9.44581 19.141 9.8304 19.141 10.3005Z" stroke="#9197B3" stroke-width="1.28214" stroke-linecap="round" stroke-linejoin="round"/>
<path d="M2.04541 9.89932V8.18981C2.04541 5.86486 3.44721 4.24082 5.62685 3.9673C5.84908 3.93311 6.07987 3.91602 6.3192 3.91602H14.012C14.2343 3.91602 14.4479 3.92455 14.6531 3.95874C16.8584 4.21517 18.2858 5.84777 18.2858 8.18981V9.42921H16.5079C16.0293 9.42921 15.5933 9.61725 15.2771 9.94206C14.9181 10.2925 14.7129 10.7968 14.7642 11.3353C14.8411 12.2585 15.6873 12.9337 16.6105 12.9337H18.2858V14.1731C18.2858 16.7374 16.5763 18.4469 14.012 18.4469H11.8751" stroke="#9197B3" stroke-width="1.28214" stroke-linecap="round" stroke-linejoin="round"/>
</svg>
