<svg width="21" height="21" viewBox="0 0 21 21" fill="none" xmlns="http://www.w3.org/2000/svg">
<path d="M7.17391 19.4119C6.93458 19.4119 6.68668 19.3521 6.46445 19.2324C5.97723 18.976 5.67809 18.4632 5.67809 17.9161V16.7024C3.09672 16.4375 1.4043 14.5398 1.4043 11.8217V6.69318C1.4043 3.75281 3.37879 1.77832 6.31916 1.77832H14.8667C17.8071 1.77832 19.7816 3.75281 19.7816 6.69318V11.8217C19.7816 14.7621 17.8071 16.7365 14.8667 16.7365H11.6443L8.003 19.1641C7.75512 19.3266 7.46453 19.4119 7.17391 19.4119ZM6.31916 3.0519C4.11388 3.0519 2.68643 4.47935 2.68643 6.68462V11.8132C2.68643 14.0185 4.11388 15.446 6.31916 15.446C6.66961 15.446 6.96022 15.7366 6.96022 16.087V17.9077C6.96022 18.0188 7.0286 18.0701 7.07134 18.0957C7.11409 18.1213 7.19956 18.147 7.29359 18.0872L11.0973 15.5571C11.1998 15.4887 11.328 15.446 11.4563 15.446H14.8753C17.0806 15.446 18.508 14.0185 18.508 11.8132V6.68462C18.508 4.47935 17.0806 3.0519 14.8753 3.0519H6.31916Z" fill="#9197B3"/>
<path d="M10.5926 10.6852C10.2422 10.6852 9.95158 10.3946 9.95158 10.0442V9.86466C9.95158 8.87314 10.6781 8.38592 10.9516 8.19787C11.2679 7.98418 11.3705 7.83888 11.3705 7.61664C11.3705 7.18926 11.02 6.83878 10.5926 6.83878C10.1653 6.83878 9.81482 7.18926 9.81482 7.61664C9.81482 7.96709 9.5242 8.25771 9.17375 8.25771C8.82333 8.25771 8.53271 7.96709 8.53271 7.61664C8.53271 6.47981 9.45582 5.55664 10.5926 5.55664C11.7295 5.55664 12.6526 6.47981 12.6526 7.61664C12.6526 8.59107 11.9346 9.07828 11.6696 9.25778C11.3363 9.48001 11.2337 9.62532 11.2337 9.86466V10.0442C11.2337 10.4032 10.9431 10.6852 10.5926 10.6852Z" fill="#9197B3"/>
<path d="M10.5927 12.8134C10.2337 12.8134 9.95166 12.5228 9.95166 12.1723C9.95166 11.8219 10.2423 11.5312 10.5927 11.5312C10.9432 11.5312 11.2338 11.8219 11.2338 12.1723C11.2338 12.5228 10.9517 12.8134 10.5927 12.8134Z" fill="#9197B3"/>
</svg>
