<svg width="33" height="33" viewBox="0 0 33 33" fill="none" xmlns="http://www.w3.org/2000/svg">
<path d="M16.7465 30.4462C15.8636 30.4462 14.9675 30.2485 14.2691 29.84L7.0215 25.6627C4.06974 23.6729 3.88525 23.3699 3.88525 20.2468V12.6302C3.88525 9.50711 4.05656 9.20403 6.95562 7.24058L14.2559 3.02377C15.6396 2.21994 17.8139 2.21994 19.1975 3.02377L26.4715 7.21422C29.4232 9.20403 29.6077 9.50711 29.6077 12.6302V20.2336C29.6077 23.3567 29.4364 23.6598 26.5374 25.6232L19.237 29.84C18.5254 30.2485 17.6294 30.4462 16.7465 30.4462ZM16.7465 4.40741C16.193 4.40741 15.6527 4.51283 15.2706 4.73685L8.02299 8.9273C5.87506 10.3768 5.87506 10.3768 5.87506 12.6302V20.2336C5.87506 22.487 5.87506 22.487 8.0757 23.976L15.2706 28.1269C16.0481 28.575 17.4581 28.575 18.2355 28.1269L25.4832 23.9365C27.6179 22.487 27.6179 22.487 27.6179 20.2336V12.6302C27.6179 10.3768 27.6179 10.3768 25.4173 8.88776L18.2224 4.73685C17.8402 4.51283 17.2999 4.40741 16.7465 4.40741Z" fill="black"/>
<path d="M16.7463 21.3802C14.0185 21.3802 11.8047 19.1664 11.8047 16.4386C11.8047 13.7109 14.0185 11.4971 16.7463 11.4971C19.474 11.4971 21.6878 13.7109 21.6878 16.4386C21.6878 19.1664 19.474 21.3802 16.7463 21.3802ZM16.7463 13.4737C15.1122 13.4737 13.7813 14.8046 13.7813 16.4386C13.7813 18.0727 15.1122 19.4036 16.7463 19.4036C18.3803 19.4036 19.7112 18.0727 19.7112 16.4386C19.7112 14.8046 18.3803 13.4737 16.7463 13.4737Z" fill="black"/>
</svg>
